<svg xmlns="http://www.w3.org/2000/svg" width="480" height="480" viewBox="0 0 480 480"><rect width="100%" height="100%" fill="#fff"/><g fill="#000"><rect x="23.41" y="23.41" width="11.71" height="11.71"/><rect x="35.12" y="23.41" width="11.71" height="11.71"/><rect x="46.83" y="23.41" width="11.71" height="11.71"/><rect x="58.54" y="23.41" width="11.71" height="11.71"/><rect x="70.24" y="23.41" width="11.71" height="11.71"/><rect x="81.95" y="23.41" width="11.71" height="11.71"/><rect x="93.66" y="23.41" width="11.71" height="11.71"/><rect x="117.07" y="23.41" width="11.71" height="11.71"/><rect x="128.78" y="23.41" width="11.71" height="11.71"/><rect x="140.49" y="23.41" width="11.71" height="11.71"/><rect x="152.20" y="23.41" width="11.71" height="11.71"/><rect x="175.61" y="23.41" width="11.71" height="11.71"/><rect x="187.32" y="23.41" width="11.71" height="11.71"/><rect x="199.02" y="23.41" width="11.71" height="11.71"/><rect x="222.44" y="23.41" width="11.71" height="11.71"/><rect x="234.15" y="23.41" width="11.71" height="11.71"/><rect x="304.39" y="23.41" width="11.71" height="11.71"/><rect x="327.80" y="23.41" width="11.71" height="11.71"/><rect x="374.63" y="23.41" width="11.71" height="11.71"/><rect x="386.34" y="23.41" width="11.71" height="11.71"/><rect x="398.05" y="23.41" width="11.71" height="11.71"/><rect x="409.76" y="23.41" width="11.71" height="11.71"/><rect x="421.46" y="23.41" width="11.71" height="11.71"/><rect x="433.17" y="23.41" width="11.71" height="11.71"/><rect x="444.88" y="23.41" width="11.71" height="11.71"/><rect x="23.41" y="35.12" width="11.71" height="11.71"/><rect x="93.66" y="35.12" width="11.71" height="11.71"/><rect x="152.20" y="35.12" width="11.71" height="11.71"/><rect x="163.90" y="35.12" width="11.71" height="11.71"/><rect x="175.61" y="35.12" width="11.71" height="11.71"/><rect x="187.32" y="35.12" width="11.71" height="11.71"/><rect x="199.02" y="35.12" width="11.71" height="11.71"/><rect x="234.15" y="35.12" width="11.71" height="11.71"/><rect x="245.85" y="35.12" width="11.71" height="11.71"/><rect x="257.56" y="35.12" width="11.71" height="11.71"/><rect x="316.10" y="35.12" width="11.71" height="11.71"/><rect x="327.80" y="35.12" width="11.71" height="11.71"/><rect x="351.22" y="35.12" width="11.71" height="11.71"/><rect x="374.63" y="35.12" width="11.71" height="11.71"/><rect x="444.88" y="35.12" width="11.71" height="11.71"/><rect x="23.41" y="46.83" width="11.71" height="11.71"/><rect x="46.83" y="46.83" width="11.71" height="11.71"/><rect x="58.54" y="46.83" width="11.71" height="11.71"/><rect x="70.24" y="46.83" width="11.71" height="11.71"/><rect x="93.66" y="46.83" width="11.71" height="11.71"/><rect x="128.78" y="46.83" width="11.71" height="11.71"/><rect x="152.20" y="46.83" width="11.71" height="11.71"/><rect x="175.61" y="46.83" width="11.71" height="11.71"/><rect x="187.32" y="46.83" width="11.71" height="11.71"/><rect x="269.27" y="46.83" width="11.71" height="11.71"/><rect x="304.39" y="46.83" width="11.71" height="11.71"/><rect x="316.10" y="46.83" width="11.71" height="11.71"/><rect x="327.80" y="46.83" width="11.71" height="11.71"/><rect x="374.63" y="46.83" width="11.71" height="11.71"/><rect x="398.05" y="46.83" width="11.71" height="11.71"/><rect x="409.76" y="46.83" width="11.71" height="11.71"/><rect x="421.46" y="46.83" width="11.71" height="11.71"/><rect x="444.88" y="46.83" width="11.71" height="11.71"/><rect x="23.41" y="58.54" width="11.71" height="11.71"/><rect x="46.83" y="58.54" width="11.71" height="11.71"/><rect x="58.54" y="58.54" width="11.71" height="11.71"/><rect x="70.24" y="58.54" width="11.71" height="11.71"/><rect x="93.66" y="58.54" width="11.71" height="11.71"/><rect x="140.49" y="58.54" width="11.71" height="11.71"/><rect x="152.20" y="58.54" width="11.71" height="11.71"/><rect x="187.32" y="58.54" width="11.71" height="11.71"/><rect x="199.02" y="58.54" width="11.71" height="11.71"/><rect x="222.44" y="58.54" width="11.71" height="11.71"/><rect x="257.56" y="58.54" width="11.71" height="11.71"/><rect x="269.27" y="58.54" width="11.71" height="11.71"/><rect x="280.98" y="58.54" width="11.71" height="11.71"/><rect x="292.68" y="58.54" width="11.71" height="11.71"/><rect x="316.10" y="58.54" width="11.71" height="11.71"/><rect x="351.22" y="58.54" width="11.71" height="11.71"/><rect x="374.63" y="58.54" width="11.71" height="11.71"/><rect x="398.05" y="58.54" width="11.71" height="11.71"/><rect x="409.76" y="58.54" width="11.71" height="11.71"/><rect x="421.46" y="58.54" width="11.71" height="11.71"/><rect x="444.88" y="58.54" width="11.71" height="11.71"/><rect x="23.41" y="70.24" width="11.71" height="11.71"/><rect x="46.83" y="70.24" width="11.71" height="11.71"/><rect x="58.54" y="70.24" width="11.71" height="11.71"/><rect x="70.24" y="70.24" width="11.71" height="11.71"/><rect x="93.66" y="70.24" width="11.71" height="11.71"/><rect x="140.49" y="70.24" width="11.71" height="11.71"/><rect x="152.20" y="70.24" width="11.71" height="11.71"/><rect x="163.90" y="70.24" width="11.71" height="11.71"/><rect x="175.61" y="70.24" width="11.71" height="11.71"/><rect x="199.02" y="70.24" width="11.71" height="11.71"/><rect x="222.44" y="70.24" width="11.71" height="11.71"/><rect x="245.85" y="70.24" width="11.71" height="11.71"/><rect x="280.98" y="70.24" width="11.71" height="11.71"/><rect x="304.39" y="70.24" width="11.71" height="11.71"/><rect x="351.22" y="70.24" width="11.71" height="11.71"/><rect x="374.63" y="70.24" width="11.71" height="11.71"/><rect x="398.05" y="70.24" width="11.71" height="11.71"/><rect x="409.76" y="70.24" width="11.71" height="11.71"/><rect x="421.46" y="70.24" width="11.71" height="11.71"/><rect x="444.88" y="70.24" width="11.71" height="11.71"/><rect x="23.41" y="81.95" width="11.71" height="11.71"/><rect x="93.66" y="81.95" width="11.71" height="11.71"/><rect x="128.78" y="81.95" width="11.71" height="11.71"/><rect x="152.20" y="81.95" width="11.71" height="11.71"/><rect x="175.61" y="81.95" width="11.71" height="11.71"/><rect x="187.32" y="81.95" width="11.71" height="11.71"/><rect x="222.44" y="81.95" width="11.71" height="11.71"/><rect x="280.98" y="81.95" width="11.71" height="11.71"/><rect x="292.68" y="81.95" width="11.71" height="11.71"/><rect x="304.39" y="81.95" width="11.71" height="11.71"/><rect x="316.10" y="81.95" width="11.71" height="11.71"/><rect x="374.63" y="81.95" width="11.71" height="11.71"/><rect x="444.88" y="81.95" width="11.71" height="11.71"/><rect x="23.41" y="93.66" width="11.71" height="11.71"/><rect x="35.12" y="93.66" width="11.71" height="11.71"/><rect x="46.83" y="93.66" width="11.71" height="11.71"/><rect x="58.54" y="93.66" width="11.71" height="11.71"/><rect x="70.24" y="93.66" width="11.71" height="11.71"/><rect x="81.95" y="93.66" width="11.71" height="11.71"/><rect x="93.66" y="93.66" width="11.71" height="11.71"/><rect x="117.07" y="93.66" width="11.71" height="11.71"/><rect x="140.49" y="93.66" width="11.71" height="11.71"/><rect x="163.90" y="93.66" width="11.71" height="11.71"/><rect x="187.32" y="93.66" width="11.71" height="11.71"/><rect x="210.73" y="93.66" width="11.71" height="11.71"/><rect x="234.15" y="93.66" width="11.71" height="11.71"/><rect x="257.56" y="93.66" width="11.71" height="11.71"/><rect x="280.98" y="93.66" width="11.71" height="11.71"/><rect x="304.39" y="93.66" width="11.71" height="11.71"/><rect x="327.80" y="93.66" width="11.71" height="11.71"/><rect x="351.22" y="93.66" width="11.71" height="11.71"/><rect x="374.63" y="93.66" width="11.71" height="11.71"/><rect x="386.34" y="93.66" width="11.71" height="11.71"/><rect x="398.05" y="93.66" width="11.71" height="11.71"/><rect x="409.76" y="93.66" width="11.71" height="11.71"/><rect x="421.46" y="93.66" width="11.71" height="11.71"/><rect x="433.17" y="93.66" width="11.71" height="11.71"/><rect x="444.88" y="93.66" width="11.71" height="11.71"/><rect x="117.07" y="105.37" width="11.71" height="11.71"/><rect x="128.78" y="105.37" width="11.71" height="11.71"/><rect x="163.90" y="105.37" width="11.71" height="11.71"/><rect x="187.32" y="105.37" width="11.71" height="11.71"/><rect x="234.15" y="105.37" width="11.71" height="11.71"/><rect x="280.98" y="105.37" width="11.71" height="11.71"/><rect x="304.39" y="105.37" width="11.71" height="11.71"/><rect x="316.10" y="105.37" width="11.71" height="11.71"/><rect x="351.22" y="105.37" width="11.71" height="11.71"/><rect x="23.41" y="117.07" width="11.71" height="11.71"/><rect x="35.12" y="117.07" width="11.71" height="11.71"/><rect x="58.54" y="117.07" width="11.71" height="11.71"/><rect x="70.24" y="117.07" width="11.71" height="11.71"/><rect x="93.66" y="117.07" width="11.71" height="11.71"/><rect x="128.78" y="117.07" width="11.71" height="11.71"/><rect x="163.90" y="117.07" width="11.71" height="11.71"/><rect x="175.61" y="117.07" width="11.71" height="11.71"/><rect x="187.32" y="117.07" width="11.71" height="11.71"/><rect x="199.02" y="117.07" width="11.71" height="11.71"/><rect x="210.73" y="117.07" width="11.71" height="11.71"/><rect x="222.44" y="117.07" width="11.71" height="11.71"/><rect x="245.85" y="117.07" width="11.71" height="11.71"/><rect x="280.98" y="117.07" width="11.71" height="11.71"/><rect x="292.68" y="117.07" width="11.71" height="11.71"/><rect x="327.80" y="117.07" width="11.71" height="11.71"/><rect x="339.51" y="117.07" width="11.71" height="11.71"/><rect x="351.22" y="117.07" width="11.71" height="11.71"/><rect x="374.63" y="117.07" width="11.71" height="11.71"/><rect x="444.88" y="117.07" width="11.71" height="11.71"/><rect x="23.41" y="128.78" width="11.71" height="11.71"/><rect x="35.12" y="128.78" width="11.71" height="11.71"/><rect x="70.24" y="128.78" width="11.71" height="11.71"/><rect x="81.95" y="128.78" width="11.71" height="11.71"/><rect x="128.78" y="128.78" width="11.71" height="11.71"/><rect x="140.49" y="128.78" width="11.71" height="11.71"/><rect x="187.32" y="128.78" width="11.71" height="11.71"/><rect x="234.15" y="128.78" width="11.71" height="11.71"/><rect x="245.85" y="128.78" width="11.71" height="11.71"/><rect x="257.56" y="128.78" width="11.71" height="11.71"/><rect x="292.68" y="128.78" width="11.71" height="11.71"/><rect x="304.39" y="128.78" width="11.71" height="11.71"/><rect x="339.51" y="128.78" width="11.71" height="11.71"/><rect x="362.93" y="128.78" width="11.71" height="11.71"/><rect x="386.34" y="128.78" width="11.71" height="11.71"/><rect x="398.05" y="128.78" width="11.71" height="11.71"/><rect x="433.17" y="128.78" width="11.71" height="11.71"/><rect x="81.95" y="140.49" width="11.71" height="11.71"/><rect x="93.66" y="140.49" width="11.71" height="11.71"/><rect x="117.07" y="140.49" width="11.71" height="11.71"/><rect x="128.78" y="140.49" width="11.71" height="11.71"/><rect x="140.49" y="140.49" width="11.71" height="11.71"/><rect x="163.90" y="140.49" width="11.71" height="11.71"/><rect x="187.32" y="140.49" width="11.71" height="11.71"/><rect x="234.15" y="140.49" width="11.71" height="11.71"/><rect x="257.56" y="140.49" width="11.71" height="11.71"/><rect x="292.68" y="140.49" width="11.71" height="11.71"/><rect x="339.51" y="140.49" width="11.71" height="11.71"/><rect x="362.93" y="140.49" width="11.71" height="11.71"/><rect x="386.34" y="140.49" width="11.71" height="11.71"/><rect x="398.05" y="140.49" width="11.71" height="11.71"/><rect x="409.76" y="140.49" width="11.71" height="11.71"/><rect x="421.46" y="140.49" width="11.71" height="11.71"/><rect x="433.17" y="140.49" width="11.71" height="11.71"/><rect x="444.88" y="140.49" width="11.71" height="11.71"/><rect x="58.54" y="152.20" width="11.71" height="11.71"/><rect x="70.24" y="152.20" width="11.71" height="11.71"/><rect x="81.95" y="152.20" width="11.71" height="11.71"/><rect x="117.07" y="152.20" width="11.71" height="11.71"/><rect x="187.32" y="152.20" width="11.71" height="11.71"/><rect x="199.02" y="152.20" width="11.71" height="11.71"/><rect x="222.44" y="152.20" width="11.71" height="11.71"/><rect x="304.39" y="152.20" width="11.71" height="11.71"/><rect x="339.51" y="152.20" width="11.71" height="11.71"/><rect x="351.22" y="152.20" width="11.71" height="11.71"/><rect x="362.93" y="152.20" width="11.71" height="11.71"/><rect x="374.63" y="152.20" width="11.71" height="11.71"/><rect x="386.34" y="152.20" width="11.71" height="11.71"/><rect x="421.46" y="152.20" width="11.71" height="11.71"/><rect x="23.41" y="163.90" width="11.71" height="11.71"/><rect x="35.12" y="163.90" width="11.71" height="11.71"/><rect x="46.83" y="163.90" width="11.71" height="11.71"/><rect x="70.24" y="163.90" width="11.71" height="11.71"/><rect x="81.95" y="163.90" width="11.71" height="11.71"/><rect x="93.66" y="163.90" width="11.71" height="11.71"/><rect x="117.07" y="163.90" width="11.71" height="11.71"/><rect x="140.49" y="163.90" width="11.71" height="11.71"/><rect x="175.61" y="163.90" width="11.71" height="11.71"/><rect x="187.32" y="163.90" width="11.71" height="11.71"/><rect x="245.85" y="163.90" width="11.71" height="11.71"/><rect x="280.98" y="163.90" width="11.71" height="11.71"/><rect x="292.68" y="163.90" width="11.71" height="11.71"/><rect x="339.51" y="163.90" width="11.71" height="11.71"/><rect x="374.63" y="163.90" width="11.71" height="11.71"/><rect x="386.34" y="163.90" width="11.71" height="11.71"/><rect x="409.76" y="163.90" width="11.71" height="11.71"/><rect x="433.17" y="163.90" width="11.71" height="11.71"/><rect x="444.88" y="163.90" width="11.71" height="11.71"/><rect x="23.41" y="175.61" width="11.71" height="11.71"/><rect x="46.83" y="175.61" width="11.71" height="11.71"/><rect x="81.95" y="175.61" width="11.71" height="11.71"/><rect x="128.78" y="175.61" width="11.71" height="11.71"/><rect x="140.49" y="175.61" width="11.71" height="11.71"/><rect x="163.90" y="175.61" width="11.71" height="11.71"/><rect x="222.44" y="175.61" width="11.71" height="11.71"/><rect x="234.15" y="175.61" width="11.71" height="11.71"/><rect x="257.56" y="175.61" width="11.71" height="11.71"/><rect x="280.98" y="175.61" width="11.71" height="11.71"/><rect x="292.68" y="175.61" width="11.71" height="11.71"/><rect x="304.39" y="175.61" width="11.71" height="11.71"/><rect x="316.10" y="175.61" width="11.71" height="11.71"/><rect x="327.80" y="175.61" width="11.71" height="11.71"/><rect x="339.51" y="175.61" width="11.71" height="11.71"/><rect x="351.22" y="175.61" width="11.71" height="11.71"/><rect x="398.05" y="175.61" width="11.71" height="11.71"/><rect x="409.76" y="175.61" width="11.71" height="11.71"/><rect x="421.46" y="175.61" width="11.71" height="11.71"/><rect x="433.17" y="175.61" width="11.71" height="11.71"/><rect x="46.83" y="187.32" width="11.71" height="11.71"/><rect x="70.24" y="187.32" width="11.71" height="11.71"/><rect x="81.95" y="187.32" width="11.71" height="11.71"/><rect x="93.66" y="187.32" width="11.71" height="11.71"/><rect x="105.37" y="187.32" width="11.71" height="11.71"/><rect x="117.07" y="187.32" width="11.71" height="11.71"/><rect x="140.49" y="187.32" width="11.71" height="11.71"/><rect x="187.32" y="187.32" width="11.71" height="11.71"/><rect x="199.02" y="187.32" width="11.71" height="11.71"/><rect x="234.15" y="187.32" width="11.71" height="11.71"/><rect x="245.85" y="187.32" width="11.71" height="11.71"/><rect x="269.27" y="187.32" width="11.71" height="11.71"/><rect x="280.98" y="187.32" width="11.71" height="11.71"/><rect x="304.39" y="187.32" width="11.71" height="11.71"/><rect x="316.10" y="187.32" width="11.71" height="11.71"/><rect x="327.80" y="187.32" width="11.71" height="11.71"/><rect x="339.51" y="187.32" width="11.71" height="11.71"/><rect x="374.63" y="187.32" width="11.71" height="11.71"/><rect x="386.34" y="187.32" width="11.71" height="11.71"/><rect x="398.05" y="187.32" width="11.71" height="11.71"/><rect x="433.17" y="187.32" width="11.71" height="11.71"/><rect x="444.88" y="187.32" width="11.71" height="11.71"/><rect x="35.12" y="199.02" width="11.71" height="11.71"/><rect x="70.24" y="199.02" width="11.71" height="11.71"/><rect x="117.07" y="199.02" width="11.71" height="11.71"/><rect x="163.90" y="199.02" width="11.71" height="11.71"/><rect x="175.61" y="199.02" width="11.71" height="11.71"/><rect x="187.32" y="199.02" width="11.71" height="11.71"/><rect x="210.73" y="199.02" width="11.71" height="11.71"/><rect x="234.15" y="199.02" width="11.71" height="11.71"/><rect x="257.56" y="199.02" width="11.71" height="11.71"/><rect x="292.68" y="199.02" width="11.71" height="11.71"/><rect x="339.51" y="199.02" width="11.71" height="11.71"/><rect x="362.93" y="199.02" width="11.71" height="11.71"/><rect x="374.63" y="199.02" width="11.71" height="11.71"/><rect x="386.34" y="199.02" width="11.71" height="11.71"/><rect x="421.46" y="199.02" width="11.71" height="11.71"/><rect x="444.88" y="199.02" width="11.71" height="11.71"/><rect x="23.41" y="210.73" width="11.71" height="11.71"/><rect x="58.54" y="210.73" width="11.71" height="11.71"/><rect x="93.66" y="210.73" width="11.71" height="11.71"/><rect x="105.37" y="210.73" width="11.71" height="11.71"/><rect x="128.78" y="210.73" width="11.71" height="11.71"/><rect x="140.49" y="210.73" width="11.71" height="11.71"/><rect x="152.20" y="210.73" width="11.71" height="11.71"/><rect x="163.90" y="210.73" width="11.71" height="11.71"/><rect x="199.02" y="210.73" width="11.71" height="11.71"/><rect x="234.15" y="210.73" width="11.71" height="11.71"/><rect x="245.85" y="210.73" width="11.71" height="11.71"/><rect x="292.68" y="210.73" width="11.71" height="11.71"/><rect x="316.10" y="210.73" width="11.71" height="11.71"/><rect x="374.63" y="210.73" width="11.71" height="11.71"/><rect x="409.76" y="210.73" width="11.71" height="11.71"/><rect x="421.46" y="210.73" width="11.71" height="11.71"/><rect x="433.17" y="210.73" width="11.71" height="11.71"/><rect x="444.88" y="210.73" width="11.71" height="11.71"/><rect x="23.41" y="222.44" width="11.71" height="11.71"/><rect x="70.24" y="222.44" width="11.71" height="11.71"/><rect x="81.95" y="222.44" width="11.71" height="11.71"/><rect x="105.37" y="222.44" width="11.71" height="11.71"/><rect x="117.07" y="222.44" width="11.71" height="11.71"/><rect x="140.49" y="222.44" width="11.71" height="11.71"/><rect x="152.20" y="222.44" width="11.71" height="11.71"/><rect x="245.85" y="222.44" width="11.71" height="11.71"/><rect x="280.98" y="222.44" width="11.71" height="11.71"/><rect x="304.39" y="222.44" width="11.71" height="11.71"/><rect x="327.80" y="222.44" width="11.71" height="11.71"/><rect x="339.51" y="222.44" width="11.71" height="11.71"/><rect x="351.22" y="222.44" width="11.71" height="11.71"/><rect x="362.93" y="222.44" width="11.71" height="11.71"/><rect x="409.76" y="222.44" width="11.71" height="11.71"/><rect x="23.41" y="234.15" width="11.71" height="11.71"/><rect x="58.54" y="234.15" width="11.71" height="11.71"/><rect x="70.24" y="234.15" width="11.71" height="11.71"/><rect x="93.66" y="234.15" width="11.71" height="11.71"/><rect x="128.78" y="234.15" width="11.71" height="11.71"/><rect x="163.90" y="234.15" width="11.71" height="11.71"/><rect x="175.61" y="234.15" width="11.71" height="11.71"/><rect x="187.32" y="234.15" width="11.71" height="11.71"/><rect x="210.73" y="234.15" width="11.71" height="11.71"/><rect x="222.44" y="234.15" width="11.71" height="11.71"/><rect x="245.85" y="234.15" width="11.71" height="11.71"/><rect x="257.56" y="234.15" width="11.71" height="11.71"/><rect x="292.68" y="234.15" width="11.71" height="11.71"/><rect x="304.39" y="234.15" width="11.71" height="11.71"/><rect x="327.80" y="234.15" width="11.71" height="11.71"/><rect x="339.51" y="234.15" width="11.71" height="11.71"/><rect x="398.05" y="234.15" width="11.71" height="11.71"/><rect x="444.88" y="234.15" width="11.71" height="11.71"/><rect x="23.41" y="245.85" width="11.71" height="11.71"/><rect x="46.83" y="245.85" width="11.71" height="11.71"/><rect x="58.54" y="245.85" width="11.71" height="11.71"/><rect x="70.24" y="245.85" width="11.71" height="11.71"/><rect x="81.95" y="245.85" width="11.71" height="11.71"/><rect x="152.20" y="245.85" width="11.71" height="11.71"/><rect x="175.61" y="245.85" width="11.71" height="11.71"/><rect x="199.02" y="245.85" width="11.71" height="11.71"/><rect x="210.73" y="245.85" width="11.71" height="11.71"/><rect x="292.68" y="245.85" width="11.71" height="11.71"/><rect x="304.39" y="245.85" width="11.71" height="11.71"/><rect x="316.10" y="245.85" width="11.71" height="11.71"/><rect x="327.80" y="245.85" width="11.71" height="11.71"/><rect x="351.22" y="245.85" width="11.71" height="11.71"/><rect x="362.93" y="245.85" width="11.71" height="11.71"/><rect x="374.63" y="245.85" width="11.71" height="11.71"/><rect x="386.34" y="245.85" width="11.71" height="11.71"/><rect x="409.76" y="245.85" width="11.71" height="11.71"/><rect x="444.88" y="245.85" width="11.71" height="11.71"/><rect x="23.41" y="257.56" width="11.71" height="11.71"/><rect x="35.12" y="257.56" width="11.71" height="11.71"/><rect x="46.83" y="257.56" width="11.71" height="11.71"/><rect x="58.54" y="257.56" width="11.71" height="11.71"/><rect x="93.66" y="257.56" width="11.71" height="11.71"/><rect x="105.37" y="257.56" width="11.71" height="11.71"/><rect x="117.07" y="257.56" width="11.71" height="11.71"/><rect x="128.78" y="257.56" width="11.71" height="11.71"/><rect x="140.49" y="257.56" width="11.71" height="11.71"/><rect x="152.20" y="257.56" width="11.71" height="11.71"/><rect x="175.61" y="257.56" width="11.71" height="11.71"/><rect x="210.73" y="257.56" width="11.71" height="11.71"/><rect x="222.44" y="257.56" width="11.71" height="11.71"/><rect x="234.15" y="257.56" width="11.71" height="11.71"/><rect x="245.85" y="257.56" width="11.71" height="11.71"/><rect x="257.56" y="257.56" width="11.71" height="11.71"/><rect x="351.22" y="257.56" width="11.71" height="11.71"/><rect x="362.93" y="257.56" width="11.71" height="11.71"/><rect x="374.63" y="257.56" width="11.71" height="11.71"/><rect x="398.05" y="257.56" width="11.71" height="11.71"/><rect x="433.17" y="257.56" width="11.71" height="11.71"/><rect x="444.88" y="257.56" width="11.71" height="11.71"/><rect x="35.12" y="269.27" width="11.71" height="11.71"/><rect x="58.54" y="269.27" width="11.71" height="11.71"/><rect x="70.24" y="269.27" width="11.71" height="11.71"/><rect x="81.95" y="269.27" width="11.71" height="11.71"/><rect x="128.78" y="269.27" width="11.71" height="11.71"/><rect x="163.90" y="269.27" width="11.71" height="11.71"/><rect x="175.61" y="269.27" width="11.71" height="11.71"/><rect x="210.73" y="269.27" width="11.71" height="11.71"/><rect x="245.85" y="269.27" width="11.71" height="11.71"/><rect x="257.56" y="269.27" width="11.71" height="11.71"/><rect x="269.27" y="269.27" width="11.71" height="11.71"/><rect x="280.98" y="269.27" width="11.71" height="11.71"/><rect x="292.68" y="269.27" width="11.71" height="11.71"/><rect x="304.39" y="269.27" width="11.71" height="11.71"/><rect x="316.10" y="269.27" width="11.71" height="11.71"/><rect x="339.51" y="269.27" width="11.71" height="11.71"/><rect x="362.93" y="269.27" width="11.71" height="11.71"/><rect x="386.34" y="269.27" width="11.71" height="11.71"/><rect x="398.05" y="269.27" width="11.71" height="11.71"/><rect x="409.76" y="269.27" width="11.71" height="11.71"/><rect x="421.46" y="269.27" width="11.71" height="11.71"/><rect x="433.17" y="269.27" width="11.71" height="11.71"/><rect x="23.41" y="280.98" width="11.71" height="11.71"/><rect x="58.54" y="280.98" width="11.71" height="11.71"/><rect x="81.95" y="280.98" width="11.71" height="11.71"/><rect x="93.66" y="280.98" width="11.71" height="11.71"/><rect x="105.37" y="280.98" width="11.71" height="11.71"/><rect x="117.07" y="280.98" width="11.71" height="11.71"/><rect x="140.49" y="280.98" width="11.71" height="11.71"/><rect x="152.20" y="280.98" width="11.71" height="11.71"/><rect x="175.61" y="280.98" width="11.71" height="11.71"/><rect x="199.02" y="280.98" width="11.71" height="11.71"/><rect x="210.73" y="280.98" width="11.71" height="11.71"/><rect x="234.15" y="280.98" width="11.71" height="11.71"/><rect x="269.27" y="280.98" width="11.71" height="11.71"/><rect x="280.98" y="280.98" width="11.71" height="11.71"/><rect x="292.68" y="280.98" width="11.71" height="11.71"/><rect x="316.10" y="280.98" width="11.71" height="11.71"/><rect x="339.51" y="280.98" width="11.71" height="11.71"/><rect x="351.22" y="280.98" width="11.71" height="11.71"/><rect x="362.93" y="280.98" width="11.71" height="11.71"/><rect x="374.63" y="280.98" width="11.71" height="11.71"/><rect x="398.05" y="280.98" width="11.71" height="11.71"/><rect x="421.46" y="280.98" width="11.71" height="11.71"/><rect x="444.88" y="280.98" width="11.71" height="11.71"/><rect x="23.41" y="292.68" width="11.71" height="11.71"/><rect x="58.54" y="292.68" width="11.71" height="11.71"/><rect x="70.24" y="292.68" width="11.71" height="11.71"/><rect x="81.95" y="292.68" width="11.71" height="11.71"/><rect x="105.37" y="292.68" width="11.71" height="11.71"/><rect x="117.07" y="292.68" width="11.71" height="11.71"/><rect x="128.78" y="292.68" width="11.71" height="11.71"/><rect x="152.20" y="292.68" width="11.71" height="11.71"/><rect x="163.90" y="292.68" width="11.71" height="11.71"/><rect x="175.61" y="292.68" width="11.71" height="11.71"/><rect x="210.73" y="292.68" width="11.71" height="11.71"/><rect x="222.44" y="292.68" width="11.71" height="11.71"/><rect x="234.15" y="292.68" width="11.71" height="11.71"/><rect x="245.85" y="292.68" width="11.71" height="11.71"/><rect x="292.68" y="292.68" width="11.71" height="11.71"/><rect x="327.80" y="292.68" width="11.71" height="11.71"/><rect x="339.51" y="292.68" width="11.71" height="11.71"/><rect x="362.93" y="292.68" width="11.71" height="11.71"/><rect x="374.63" y="292.68" width="11.71" height="11.71"/><rect x="386.34" y="292.68" width="11.71" height="11.71"/><rect x="409.76" y="292.68" width="11.71" height="11.71"/><rect x="421.46" y="292.68" width="11.71" height="11.71"/><rect x="433.17" y="292.68" width="11.71" height="11.71"/><rect x="444.88" y="292.68" width="11.71" height="11.71"/><rect x="58.54" y="304.39" width="11.71" height="11.71"/><rect x="93.66" y="304.39" width="11.71" height="11.71"/><rect x="128.78" y="304.39" width="11.71" height="11.71"/><rect x="140.49" y="304.39" width="11.71" height="11.71"/><rect x="152.20" y="304.39" width="11.71" height="11.71"/><rect x="163.90" y="304.39" width="11.71" height="11.71"/><rect x="175.61" y="304.39" width="11.71" height="11.71"/><rect x="199.02" y="304.39" width="11.71" height="11.71"/><rect x="234.15" y="304.39" width="11.71" height="11.71"/><rect x="245.85" y="304.39" width="11.71" height="11.71"/><rect x="257.56" y="304.39" width="11.71" height="11.71"/><rect x="351.22" y="304.39" width="11.71" height="11.71"/><rect x="374.63" y="304.39" width="11.71" height="11.71"/><rect x="409.76" y="304.39" width="11.71" height="11.71"/><rect x="444.88" y="304.39" width="11.71" height="11.71"/><rect x="23.41" y="316.10" width="11.71" height="11.71"/><rect x="35.12" y="316.10" width="11.71" height="11.71"/><rect x="58.54" y="316.10" width="11.71" height="11.71"/><rect x="105.37" y="316.10" width="11.71" height="11.71"/><rect x="117.07" y="316.10" width="11.71" height="11.71"/><rect x="128.78" y="316.10" width="11.71" height="11.71"/><rect x="140.49" y="316.10" width="11.71" height="11.71"/><rect x="175.61" y="316.10" width="11.71" height="11.71"/><rect x="187.32" y="316.10" width="11.71" height="11.71"/><rect x="199.02" y="316.10" width="11.71" height="11.71"/><rect x="245.85" y="316.10" width="11.71" height="11.71"/><rect x="269.27" y="316.10" width="11.71" height="11.71"/><rect x="292.68" y="316.10" width="11.71" height="11.71"/><rect x="304.39" y="316.10" width="11.71" height="11.71"/><rect x="316.10" y="316.10" width="11.71" height="11.71"/><rect x="339.51" y="316.10" width="11.71" height="11.71"/><rect x="351.22" y="316.10" width="11.71" height="11.71"/><rect x="398.05" y="316.10" width="11.71" height="11.71"/><rect x="433.17" y="316.10" width="11.71" height="11.71"/><rect x="23.41" y="327.80" width="11.71" height="11.71"/><rect x="35.12" y="327.80" width="11.71" height="11.71"/><rect x="70.24" y="327.80" width="11.71" height="11.71"/><rect x="81.95" y="327.80" width="11.71" height="11.71"/><rect x="93.66" y="327.80" width="11.71" height="11.71"/><rect x="117.07" y="327.80" width="11.71" height="11.71"/><rect x="128.78" y="327.80" width="11.71" height="11.71"/><rect x="152.20" y="327.80" width="11.71" height="11.71"/><rect x="163.90" y="327.80" width="11.71" height="11.71"/><rect x="175.61" y="327.80" width="11.71" height="11.71"/><rect x="199.02" y="327.80" width="11.71" height="11.71"/><rect x="210.73" y="327.80" width="11.71" height="11.71"/><rect x="222.44" y="327.80" width="11.71" height="11.71"/><rect x="245.85" y="327.80" width="11.71" height="11.71"/><rect x="257.56" y="327.80" width="11.71" height="11.71"/><rect x="304.39" y="327.80" width="11.71" height="11.71"/><rect x="339.51" y="327.80" width="11.71" height="11.71"/><rect x="362.93" y="327.80" width="11.71" height="11.71"/><rect x="386.34" y="327.80" width="11.71" height="11.71"/><rect x="398.05" y="327.80" width="11.71" height="11.71"/><rect x="421.46" y="327.80" width="11.71" height="11.71"/><rect x="433.17" y="327.80" width="11.71" height="11.71"/><rect x="444.88" y="327.80" width="11.71" height="11.71"/><rect x="23.41" y="339.51" width="11.71" height="11.71"/><rect x="46.83" y="339.51" width="11.71" height="11.71"/><rect x="58.54" y="339.51" width="11.71" height="11.71"/><rect x="117.07" y="339.51" width="11.71" height="11.71"/><rect x="152.20" y="339.51" width="11.71" height="11.71"/><rect x="210.73" y="339.51" width="11.71" height="11.71"/><rect x="234.15" y="339.51" width="11.71" height="11.71"/><rect x="245.85" y="339.51" width="11.71" height="11.71"/><rect x="257.56" y="339.51" width="11.71" height="11.71"/><rect x="339.51" y="339.51" width="11.71" height="11.71"/><rect x="351.22" y="339.51" width="11.71" height="11.71"/><rect x="374.63" y="339.51" width="11.71" height="11.71"/><rect x="386.34" y="339.51" width="11.71" height="11.71"/><rect x="409.76" y="339.51" width="11.71" height="11.71"/><rect x="421.46" y="339.51" width="11.71" height="11.71"/><rect x="444.88" y="339.51" width="11.71" height="11.71"/><rect x="23.41" y="351.22" width="11.71" height="11.71"/><rect x="46.83" y="351.22" width="11.71" height="11.71"/><rect x="58.54" y="351.22" width="11.71" height="11.71"/><rect x="93.66" y="351.22" width="11.71" height="11.71"/><rect x="117.07" y="351.22" width="11.71" height="11.71"/><rect x="128.78" y="351.22" width="11.71" height="11.71"/><rect x="140.49" y="351.22" width="11.71" height="11.71"/><rect x="187.32" y="351.22" width="11.71" height="11.71"/><rect x="199.02" y="351.22" width="11.71" height="11.71"/><rect x="210.73" y="351.22" width="11.71" height="11.71"/><rect x="234.15" y="351.22" width="11.71" height="11.71"/><rect x="280.98" y="351.22" width="11.71" height="11.71"/><rect x="304.39" y="351.22" width="11.71" height="11.71"/><rect x="316.10" y="351.22" width="11.71" height="11.71"/><rect x="339.51" y="351.22" width="11.71" height="11.71"/><rect x="351.22" y="351.22" width="11.71" height="11.71"/><rect x="362.93" y="351.22" width="11.71" height="11.71"/><rect x="374.63" y="351.22" width="11.71" height="11.71"/><rect x="386.34" y="351.22" width="11.71" height="11.71"/><rect x="398.05" y="351.22" width="11.71" height="11.71"/><rect x="421.46" y="351.22" width="11.71" height="11.71"/><rect x="433.17" y="351.22" width="11.71" height="11.71"/><rect x="117.07" y="362.93" width="11.71" height="11.71"/><rect x="128.78" y="362.93" width="11.71" height="11.71"/><rect x="140.49" y="362.93" width="11.71" height="11.71"/><rect x="152.20" y="362.93" width="11.71" height="11.71"/><rect x="163.90" y="362.93" width="11.71" height="11.71"/><rect x="175.61" y="362.93" width="11.71" height="11.71"/><rect x="187.32" y="362.93" width="11.71" height="11.71"/><rect x="199.02" y="362.93" width="11.71" height="11.71"/><rect x="210.73" y="362.93" width="11.71" height="11.71"/><rect x="222.44" y="362.93" width="11.71" height="11.71"/><rect x="257.56" y="362.93" width="11.71" height="11.71"/><rect x="280.98" y="362.93" width="11.71" height="11.71"/><rect x="351.22" y="362.93" width="11.71" height="11.71"/><rect x="398.05" y="362.93" width="11.71" height="11.71"/><rect x="421.46" y="362.93" width="11.71" height="11.71"/><rect x="433.17" y="362.93" width="11.71" height="11.71"/><rect x="23.41" y="374.63" width="11.71" height="11.71"/><rect x="35.12" y="374.63" width="11.71" height="11.71"/><rect x="46.83" y="374.63" width="11.71" height="11.71"/><rect x="58.54" y="374.63" width="11.71" height="11.71"/><rect x="70.24" y="374.63" width="11.71" height="11.71"/><rect x="81.95" y="374.63" width="11.71" height="11.71"/><rect x="93.66" y="374.63" width="11.71" height="11.71"/><rect x="152.20" y="374.63" width="11.71" height="11.71"/><rect x="199.02" y="374.63" width="11.71" height="11.71"/><rect x="210.73" y="374.63" width="11.71" height="11.71"/><rect x="234.15" y="374.63" width="11.71" height="11.71"/><rect x="245.85" y="374.63" width="11.71" height="11.71"/><rect x="269.27" y="374.63" width="11.71" height="11.71"/><rect x="292.68" y="374.63" width="11.71" height="11.71"/><rect x="316.10" y="374.63" width="11.71" height="11.71"/><rect x="351.22" y="374.63" width="11.71" height="11.71"/><rect x="374.63" y="374.63" width="11.71" height="11.71"/><rect x="398.05" y="374.63" width="11.71" height="11.71"/><rect x="409.76" y="374.63" width="11.71" height="11.71"/><rect x="444.88" y="374.63" width="11.71" height="11.71"/><rect x="23.41" y="386.34" width="11.71" height="11.71"/><rect x="93.66" y="386.34" width="11.71" height="11.71"/><rect x="128.78" y="386.34" width="11.71" height="11.71"/><rect x="163.90" y="386.34" width="11.71" height="11.71"/><rect x="187.32" y="386.34" width="11.71" height="11.71"/><rect x="210.73" y="386.34" width="11.71" height="11.71"/><rect x="245.85" y="386.34" width="11.71" height="11.71"/><rect x="304.39" y="386.34" width="11.71" height="11.71"/><rect x="316.10" y="386.34" width="11.71" height="11.71"/><rect x="339.51" y="386.34" width="11.71" height="11.71"/><rect x="351.22" y="386.34" width="11.71" height="11.71"/><rect x="398.05" y="386.34" width="11.71" height="11.71"/><rect x="409.76" y="386.34" width="11.71" height="11.71"/><rect x="433.17" y="386.34" width="11.71" height="11.71"/><rect x="444.88" y="386.34" width="11.71" height="11.71"/><rect x="23.41" y="398.05" width="11.71" height="11.71"/><rect x="46.83" y="398.05" width="11.71" height="11.71"/><rect x="58.54" y="398.05" width="11.71" height="11.71"/><rect x="70.24" y="398.05" width="11.71" height="11.71"/><rect x="93.66" y="398.05" width="11.71" height="11.71"/><rect x="117.07" y="398.05" width="11.71" height="11.71"/><rect x="163.90" y="398.05" width="11.71" height="11.71"/><rect x="175.61" y="398.05" width="11.71" height="11.71"/><rect x="187.32" y="398.05" width="11.71" height="11.71"/><rect x="210.73" y="398.05" width="11.71" height="11.71"/><rect x="222.44" y="398.05" width="11.71" height="11.71"/><rect x="234.15" y="398.05" width="11.71" height="11.71"/><rect x="257.56" y="398.05" width="11.71" height="11.71"/><rect x="304.39" y="398.05" width="11.71" height="11.71"/><rect x="327.80" y="398.05" width="11.71" height="11.71"/><rect x="339.51" y="398.05" width="11.71" height="11.71"/><rect x="351.22" y="398.05" width="11.71" height="11.71"/><rect x="362.93" y="398.05" width="11.71" height="11.71"/><rect x="374.63" y="398.05" width="11.71" height="11.71"/><rect x="386.34" y="398.05" width="11.71" height="11.71"/><rect x="398.05" y="398.05" width="11.71" height="11.71"/><rect x="444.88" y="398.05" width="11.71" height="11.71"/><rect x="23.41" y="409.76" width="11.71" height="11.71"/><rect x="46.83" y="409.76" width="11.71" height="11.71"/><rect x="58.54" y="409.76" width="11.71" height="11.71"/><rect x="70.24" y="409.76" width="11.71" height="11.71"/><rect x="93.66" y="409.76" width="11.71" height="11.71"/><rect x="117.07" y="409.76" width="11.71" height="11.71"/><rect x="140.49" y="409.76" width="11.71" height="11.71"/><rect x="187.32" y="409.76" width="11.71" height="11.71"/><rect x="222.44" y="409.76" width="11.71" height="11.71"/><rect x="245.85" y="409.76" width="11.71" height="11.71"/><rect x="257.56" y="409.76" width="11.71" height="11.71"/><rect x="280.98" y="409.76" width="11.71" height="11.71"/><rect x="292.68" y="409.76" width="11.71" height="11.71"/><rect x="362.93" y="409.76" width="11.71" height="11.71"/><rect x="374.63" y="409.76" width="11.71" height="11.71"/><rect x="421.46" y="409.76" width="11.71" height="11.71"/><rect x="433.17" y="409.76" width="11.71" height="11.71"/><rect x="444.88" y="409.76" width="11.71" height="11.71"/><rect x="23.41" y="421.46" width="11.71" height="11.71"/><rect x="46.83" y="421.46" width="11.71" height="11.71"/><rect x="58.54" y="421.46" width="11.71" height="11.71"/><rect x="70.24" y="421.46" width="11.71" height="11.71"/><rect x="93.66" y="421.46" width="11.71" height="11.71"/><rect x="128.78" y="421.46" width="11.71" height="11.71"/><rect x="163.90" y="421.46" width="11.71" height="11.71"/><rect x="187.32" y="421.46" width="11.71" height="11.71"/><rect x="199.02" y="421.46" width="11.71" height="11.71"/><rect x="210.73" y="421.46" width="11.71" height="11.71"/><rect x="222.44" y="421.46" width="11.71" height="11.71"/><rect x="234.15" y="421.46" width="11.71" height="11.71"/><rect x="257.56" y="421.46" width="11.71" height="11.71"/><rect x="269.27" y="421.46" width="11.71" height="11.71"/><rect x="280.98" y="421.46" width="11.71" height="11.71"/><rect x="292.68" y="421.46" width="11.71" height="11.71"/><rect x="316.10" y="421.46" width="11.71" height="11.71"/><rect x="327.80" y="421.46" width="11.71" height="11.71"/><rect x="351.22" y="421.46" width="11.71" height="11.71"/><rect x="362.93" y="421.46" width="11.71" height="11.71"/><rect x="386.34" y="421.46" width="11.71" height="11.71"/><rect x="398.05" y="421.46" width="11.71" height="11.71"/><rect x="409.76" y="421.46" width="11.71" height="11.71"/><rect x="421.46" y="421.46" width="11.71" height="11.71"/><rect x="444.88" y="421.46" width="11.71" height="11.71"/><rect x="23.41" y="433.17" width="11.71" height="11.71"/><rect x="93.66" y="433.17" width="11.71" height="11.71"/><rect x="117.07" y="433.17" width="11.71" height="11.71"/><rect x="140.49" y="433.17" width="11.71" height="11.71"/><rect x="187.32" y="433.17" width="11.71" height="11.71"/><rect x="222.44" y="433.17" width="11.71" height="11.71"/><rect x="234.15" y="433.17" width="11.71" height="11.71"/><rect x="257.56" y="433.17" width="11.71" height="11.71"/><rect x="292.68" y="433.17" width="11.71" height="11.71"/><rect x="304.39" y="433.17" width="11.71" height="11.71"/><rect x="374.63" y="433.17" width="11.71" height="11.71"/><rect x="386.34" y="433.17" width="11.71" height="11.71"/><rect x="409.76" y="433.17" width="11.71" height="11.71"/><rect x="421.46" y="433.17" width="11.71" height="11.71"/><rect x="433.17" y="433.17" width="11.71" height="11.71"/><rect x="444.88" y="433.17" width="11.71" height="11.71"/><rect x="23.41" y="444.88" width="11.71" height="11.71"/><rect x="35.12" y="444.88" width="11.71" height="11.71"/><rect x="46.83" y="444.88" width="11.71" height="11.71"/><rect x="58.54" y="444.88" width="11.71" height="11.71"/><rect x="70.24" y="444.88" width="11.71" height="11.71"/><rect x="81.95" y="444.88" width="11.71" height="11.71"/><rect x="93.66" y="444.88" width="11.71" height="11.71"/><rect x="117.07" y="444.88" width="11.71" height="11.71"/><rect x="128.78" y="444.88" width="11.71" height="11.71"/><rect x="175.61" y="444.88" width="11.71" height="11.71"/><rect x="187.32" y="444.88" width="11.71" height="11.71"/><rect x="210.73" y="444.88" width="11.71" height="11.71"/><rect x="234.15" y="444.88" width="11.71" height="11.71"/><rect x="257.56" y="444.88" width="11.71" height="11.71"/><rect x="304.39" y="444.88" width="11.71" height="11.71"/><rect x="339.51" y="444.88" width="11.71" height="11.71"/><rect x="351.22" y="444.88" width="11.71" height="11.71"/><rect x="374.63" y="444.88" width="11.71" height="11.71"/><rect x="386.34" y="444.88" width="11.71" height="11.71"/><rect x="398.05" y="444.88" width="11.71" height="11.71"/><rect x="409.76" y="444.88" width="11.71" height="11.71"/><rect x="444.88" y="444.88" width="11.71" height="11.71"/></g></svg>